<svg height="512pt" viewBox="-61 0 512 512" width="512pt" xmlns="http://www.w3.org/2000/svg"><path d="m270 30v122h-240c-16.5 0-30-13.5-30-30v-122h240c16.570312 0 30 13.429688 30 30zm0 0" fill="#e0f4ff"/><path d="m270 30v122h-75v-152h45c16.570312 0 30 13.429688 30 30zm0 0" fill="#bbdcff"/><path d="m240 0v152c5.613281 0 127.796875 0 120 0 16.5 0 30-13.199219 30-30v-122c-5.425781 0-154.484375 0-150 0zm0 0" fill="#9abadb"/><path d="m300 62h30v30h-30zm0 0" fill="#47568c"/><g fill="#61729b"><path d="m0 122v390h390v-390zm0 0"/><path d="m60 62h60v30h-60zm0 0"/><path d="m150 62h60v30h-60zm0 0"/></g><path d="m195 62h15v30h-15zm0 0" fill="#47568c"/><path d="m195 122h195v390h-195zm0 0" fill="#47568c"/><path d="m195 182c-74.398438 0-135 60.601562-135 135s60.601562 135 135 135 135-60.601562 135-135-60.601562-135-135-135zm0 0" fill="#e0f4ff"/><path d="m300 317c0 3.601562-.300781 6.898438-.601562 10.5v.300781c0 .296875 0 .898438-.300782 1.5-5.996094 52.199219-50.398437 92.699219-104.097656 92.699219-57.898438 0-105-47.101562-105-105 0-4.199219.300781-8.101562.902344-12.300781 0-.597657 0-1.199219.296875-1.796875 6.601562-51.300782 50.699219-90.902344 103.800781-90.902344 57.898438 0 105 47.101562 105 105zm0 0" fill="#e0f4ff"/><path d="m195 182c0-4.082031 0 263.457031 0 270 74.398438 0 135-60.601562 135-135s-60.601562-135-135-135zm0 0" fill="#bbdcff"/><path d="m299.398438 327.800781c0 .300781 0 .898438-.300782 1.5-5.996094 52.199219-50.398437 92.699219-104.097656 92.699219-57.898438 0-105-47.101562-105-105 0-4.199219.300781-8.101562.902344-12.300781 0-.597657 0-1.199219.296875-1.796875 32.402343-26.402344 75.601562-44.101563 103.800781-15.902344s71.699219 54.300781 104.398438 40.800781zm0 0" fill="#00c0f1"/><path d="m299.398438 327.800781c0 .300781 0 .898438-.300782 1.5-5.996094 52.199219-50.398437 92.699219-104.097656 92.699219v-135c28.199219 28.199219 71.699219 54.300781 104.398438 40.800781zm0 0" fill="#009ae4"/><path d="m300 317c0 3.601562-.300781 6.898438-.601562 10.5v.300781c0 .296875 0 .898438-.300782 1.5-32.699218 20.101563-75.898437 15.898438-104.097656-12.300781s-71.398438-32.402344-104.097656-12.300781c0-.597657 0-1.199219.296875-1.796875 6.601562-51.300782 50.699219-90.902344 103.800781-90.902344 57.898438 0 105 47.101562 105 105zm0 0" fill="#25d9f8"/><path d="m300 317c0 3.601562-.300781 6.898438-.601562 10.5v.300781c0 .296875 0 .898438-.300782 1.5-32.699218 20.101563-75.898437 15.898438-104.097656-12.300781v-105c57.898438 0 105 47.101562 105 105zm0 0" fill="#00c0f1"/></svg>