<svg height="464pt" viewBox="-21 0 464 464" width="464pt" xmlns="http://www.w3.org/2000/svg"><path d="m381.65625 16h24c8.835938 0 16 7.164062 16 16s-7.164062 16-16 16h-24zm0 0" fill="#394d5c"/><path d="m381.65625 48h24c8.835938 0 16 7.164062 16 16s-7.164062 16-16 16h-24zm0 0" fill="#aabece"/><path d="m140.160156 0h227c12.425782.00390625 22.496094 10.078125 22.496094 22.503906v409.496094h-272v-409.496094c0-12.429687 10.074219-22.503906 22.503906-22.503906zm0 0" fill="#7d8d9c"/><path d="m149.65625 432c0 17.671875-14.328125 32-32 32s-32-14.328125-32-32 14.328125-32 32-32 32 14.328125 32 32zm0 0" fill="#394d5c"/><path d="m421.65625 432c0 17.671875-14.328125 32-32 32s-32-14.328125-32-32 14.328125-32 32-32 32 14.328125 32 32zm0 0" fill="#394d5c"/><path d="m149.65625 64h208v288h-208zm0 0" fill="#394d5c"/><g fill="#cfdfe8"><path d="m197.65625 96h112c8.835938 0 16 7.164062 16 16s-7.164062 16-16 16h-112c-8.835938 0-16-7.164062-16-16s7.164062-16 16-16zm0 0"/><path d="m197.65625 160h112c8.835938 0 16 7.164062 16 16s-7.164062 16-16 16h-112c-8.835938 0-16-7.164062-16-16s7.164062-16 16-16zm0 0"/><path d="m197.65625 224h112c8.835938 0 16 7.164062 16 16s-7.164062 16-16 16h-112c-8.835938 0-16-7.164062-16-16s7.164062-16 16-16zm0 0"/><path d="m197.65625 288h112c8.835938 0 16 7.164062 16 16s-7.164062 16-16 16h-112c-8.835938 0-16-7.164062-16-16s7.164062-16 16-16zm0 0"/><path d="m165.65625 0h16v40h-16zm0 0"/><path d="m197.65625 0h16v40h-16zm0 0"/><path d="m229.65625 0h16v40h-16zm0 0"/><path d="m261.65625 0h16v40h-16zm0 0"/><path d="m293.65625 0h16v40h-16zm0 0"/><path d="m325.65625 0h16v40h-16zm0 0"/><path d="m165.65625 392h16v40h-16zm0 0"/><path d="m197.65625 392h16v40h-16zm0 0"/><path d="m229.65625 392h16v40h-16zm0 0"/><path d="m261.65625 392h16v40h-16zm0 0"/><path d="m293.65625 392h16v40h-16zm0 0"/><path d="m325.65625 392h16v40h-16zm0 0"/></g><path d="m61.65625 163.3125-32-32-18.34375 18.34375-11.3125-11.3125 29.65625-29.65625 32 32 18.34375-18.34375 11.3125 11.3125zm0 0" fill="#f7a014"/><path d="m61.65625 227.3125-32-32-18.34375 18.34375-11.3125-11.3125 29.65625-29.65625 32 32 18.34375-18.34375 11.3125 11.3125zm0 0" fill="#f7a014"/><path d="m61.65625 99.3125-32-32-18.34375 18.34375-11.3125-11.3125 29.65625-29.65625 32 32 18.34375-18.34375 11.3125 11.3125zm0 0" fill="#f7a014"/><path d="m61.65625 355.3125-32-32-18.34375 18.34375-11.3125-11.3125 29.65625-29.65625 32 32 18.34375-18.34375 11.3125 11.3125zm0 0" fill="#f7a014"/><path d="m61.65625 291.3125-32-32-18.34375 18.34375-11.3125-11.3125 29.65625-29.65625 32 32 18.34375-18.34375 11.3125 11.3125zm0 0" fill="#f7a014"/></svg>